<svg data-name="Calque 2" xmlns="http://www.w3.org/2000/svg" width="132.034" height="132.034"><g data-name="Layer 1" fill="#1078ad"><path data-name="Tracé 871" d="M66.036 0a66.017 66.017 0 1066 66 66.017 66.017 0 00-66-66zm0 1.644a64.354 64.354 0 0163.289 76.014c-2.261-4.634-5.475-11.978-6.671-14.837a6.914 6.914 0 00-5.9-4.242H89.187c-3.457 0-7.194 4.522-7.829 9.53a22.068 22.068 0 01-4.522 9.679 10.333 10.333 0 017.773 5.157l16.929 36.718a62.747 62.747 0 01-4.709 2.84c-3.532-7.867-14.519-32.233-16.425-35.671a6.409 6.409 0 00-5.606-3.868H46.77a6.465 6.465 0 00-5.381 4.167l-14.033 30.272a62.207 62.207 0 01-4.372-3.606l13.323-28.421a12.071 12.071 0 018.427-7.624v-.747a23.824 23.824 0 01-4.298-11.535H15.38a6.222 6.222 0 00-4.914 3.326l-6.486 14.3A64.372 64.372 0 0166.036 1.644zm55.5 90.981l1.663 2.9a46.082 46.082 0 01-1.476 2.709zM42.734 126.07a50.136 50.136 0 01-3.737-1.626l3.737-7.885zm36.83-9.586l5.269 11.081c-1.7.523-3.42.953-5.157 1.327z"/><path data-name="Tracé 872" d="M27.637 62.391a13.641 13.641 0 10-13.641-13.639 13.641 13.641 0 0013.641 13.639z"/><circle data-name="Ellipse 300" cx="15.378" cy="15.378" r="15.378" transform="rotate(-45 97.346 -15.091)"/><circle data-name="Ellipse 301" cx="15.378" cy="15.378" r="15.378" transform="rotate(-45 89.053 -78.59)"/></g></svg>