<svg data-name="Calque 2" xmlns="http://www.w3.org/2000/svg" width="95.38" height="116.598"><g data-name="Layer 1" fill="#1078ad"><path data-name="Tracé 902" d="M95.38 100.206A70.456 70.456 0 010 95.574s9.617-22.211 10.991-25.417a10.568 10.568 0 018.807-5.971c3.664-.106 53.617 0 53.617 0a11.784 11.784 0 019.353 6.711z"/><path data-name="Tracé 903" d="M23.444 13.793a28.182 28.182 0 1048.527.088l-8.279 16.662a4.333 4.333 0 00-.176 1.55c0 .81.211 11.52-.123 13.862a15.853 15.853 0 01-4.65 3.646c-3.241 1.761-6.13 3.628-9.441 3.857a14.443 14.443 0 01-9.529-2.307 64.115 64.115 0 01-7.38-5.636s-.37-12.03-.211-14.584z"/><path data-name="Tracé 904" d="M71.072 12.49a28.182 28.182 0 00-46.818 0l9.318 17.209s.546.934 2.1 0a72.85 72.85 0 007.75-4.333 8.014 8.014 0 019.212.405 24.184 24.184 0 007.38 4.139c.986.176 1.62.3 1.99-.106s9.068-17.314 9.068-17.314z"/></g></svg>