<svg data-name="Calque 2" xmlns="http://www.w3.org/2000/svg" width="104.866" height="104.866"><g data-name="Layer 1" fill="#1078ad"><path data-name="Tracé 871" d="M52.448 0a52.433 52.433 0 1052.418 52.423A52.433 52.433 0 0052.448 0zm0 1.306a51.112 51.112 0 0150.266 60.373c-1.8-3.681-4.348-9.513-5.3-11.784a5.491 5.491 0 00-4.69-3.369H70.836c-2.746 0-5.714 3.592-6.218 7.569a17.527 17.527 0 01-3.592 7.688 8.207 8.207 0 016.174 4.1l13.446 29.162a50.668 50.668 0 01-3.74 2.256c-2.8-6.248-11.531-25.6-13.045-28.331a5.09 5.09 0 00-4.452-3.072H37.147a5.135 5.135 0 00-4.274 3.31L21.727 93.245a49.844 49.844 0 01-3.473-2.864l10.582-22.573a9.587 9.587 0 016.693-6.055v-.594a18.922 18.922 0 01-3.413-9.157h-19.9a4.942 4.942 0 00-3.9 2.642l-5.15 11.353A51.127 51.127 0 0152.448 1.306zM96.525 73.57l1.321 2.3a37.287 37.287 0 01-1.172 2.152zm-62.584 26.562a41.318 41.318 0 01-2.968-1.291l2.968-6.263zm29.251-7.613l4.185 8.8a48.405 48.405 0 01-4.1 1.054z"/><path data-name="Tracé 872" d="M21.95 49.554A10.834 10.834 0 1011.116 38.72 10.834 10.834 0 0021.95 49.554z"/><circle data-name="Ellipse 300" cx="12.214" cy="12.214" r="12.214" transform="rotate(-45 77.316 -11.986)"/><circle data-name="Ellipse 301" cx="12.214" cy="12.214" r="12.214" transform="rotate(-45 70.73 -62.419)"/></g></svg>