<svg data-name="Calque 2" xmlns="http://www.w3.org/2000/svg" width="144.539" height="91.104"><g data-name="Layer 1" fill="#1078ad"><path data-name="Tracé 911" d="M52.371 36.928s-8.859 4.354-12.1-2.5a8.991 8.991 0 012.881-11.148L64.518 8.63c-2.006-1.117-3.691-3.483-15.332 2.991s-17.32-.909-17.32-.909L18.318 44.783l10.96 11.357a8.2 8.2 0 019.01-1.666c4.183 1.458 4.41 6.871 4.41 6.871l6.852-6.038a11.187 11.187 0 017.023-.3c3.786 1.136 4.713 7.571 4.713 7.571s5.679-2.8 9.464.416 2.347 9.464 2.347 9.464c10.165 1.76 6.947 11.357 6.947 11.357a5 5 0 005.849-.681c2.631-2.555.757-6.739.757-6.739L75.899 64.318c-.871-2.839 2.139-2.839 2.139-2.839L91.97 76.13a5.963 5.963 0 002.5 1.23c6.928-.322 5.243-7.571 5.243-7.571L87.124 56.178a2.309 2.309 0 012.555-3.161l15.332 16.2c6.852 1.741 7.174-4.051 7.174-4.051l-37.63-39.52z"/><rect data-name="Rectangle 1113" width="12.985" height="10.184" rx="2.62" transform="rotate(-45 89.667 .744)"/><rect data-name="Rectangle 1114" width="21.749" height="10.146" rx="2.62" transform="rotate(-42.26 109.54 -13.936)"/><path data-name="Tracé 912" d="M69.65 65.907a5.073 5.073 0 00-7.174-.341l-11.032 9.957a5.1 5.1 0 006.833 7.571l10.96-9.975a5.073 5.073 0 00.413-7.212z"/><path data-name="Tracé 913" d="M69.824 76.867l-5.49 5.508a5.113 5.113 0 007.231 7.231l5.508-5.489a5.13 5.13 0 10-7.25-7.25z"/><rect data-name="Rectangle 1115" width="44.274" height="15.446" rx="1.15" transform="matrix(.364 -.931 .931 .364 0 41.233)"/><path data-name="Tracé 914" d="M98.083 12.719c-5.83-3.5-13.25-8.65-19.364-7.117s-20.935 10.9-24.1 12.947a114.388 114.388 0 00-11.187 8.461 7 7 0 00-.473 6.587 5.224 5.224 0 006.133 1.4c1.628-.7 24.38-12.133 24.38-12.133s2.555-.53 3.615.984 35.586 37.63 35.586 37.63 11.149-7.78 14.518-15.559l-18.243-33.694a9.843 9.843 0 01-10.865.492z"/><rect data-name="Rectangle 1116" width="15.54" height="44.501" rx="1.83" transform="rotate(-27.84 70.24 -218.167)"/></g></svg>