<svg data-name="Calque 2" xmlns="http://www.w3.org/2000/svg" width="105.475" height="128"><g data-name="Layer 1" fill="#1078ad"><path data-name="Tracé 905" d="M93.012 18.529v-4.842h-5.4V5.838h6.765a2.919 2.919 0 100-5.838H73.889a2.919 2.919 0 100 5.838h7.359v7.848h-5.926v5.122l-11.453.158c-11.62 1.013-11.62 9.946-11.62 9.946v8.268h10.243v-6.136a2.325 2.325 0 012.2-1.993l13.057-.14a7.491 7.491 0 0013.634-.14l14.089-.157v-10.26z"/><path data-name="Tracé 906" d="M19.597 72.296c7.481.752 7.831 12.044 7.831 12.044s9.317-21.64 10.156-23.58 2.867-6.31 6.747-6.485a7.5 7.5 0 016.065 2.991 6.73 6.73 0 015.8-4.16 7.446 7.446 0 016.537 3.3h4.387c5.598-4.946-.709-8.04-.709-8.04l-32.827.472c-3.499 19.228-18.812 16.659-18.812 16.659-1.591-1.241.42-2.272.42-2.272 15.557.331 15.889-15.977 15.889-15.977 1.538-.752 8.95-6.712 13.39-10.348a4 4 0 00.3-5.856l-.1-.1a4.038 4.038 0 00-5.244-.507L19.929 43.891A22.846 22.846 0 00.019 66.003c-.594 12.363 12.586 20.522 12.586 20.522-1.154-7.202-.525-14.98 6.992-14.229z"/><path data-name="Tracé 907" d="M74.746 87.067a9.124 9.124 0 00-2.412.315l2.779-6.1a4.306 4.306 0 00-7.831-3.583l-8.25 17.9c-1.975.122-1.328-1.748-1.328-1.748l10.226-22.6a4.073 4.073 0 00-7.394-3.391L50.417 89.777a1.294 1.294 0 01-1.94-1.049l12.425-27.251a4.038 4.038 0 00-1.748-5.244 4.02 4.02 0 00-5.559 1.87L41.167 85.424c-2.01 1.014-1.888-1.306-1.888-1.306l9.474-21.308a3.97 3.97 0 00-7.219-3.3L27.987 88.203a3.828 3.828 0 00-.3 2.272l1.154 6.188a.8.8 0 01-.664.577 1.486 1.486 0 01-1.748-1.241l-3.004-17.322a4.265 4.265 0 00-8.443 1.119c.385 4.073.909 9.631.979 10.488.14 1.451 1.066 20.347 1.066 20.347 4.09 14.631 15.452 18.3 25.608 17.183s16.8-12.236 16.8-12.236l1.362-2.96a6.992 6.992 0 002.972.647 7.184 7.184 0 007.2-7.2 6.205 6.205 0 000-.8 9.335 9.335 0 003.828.8 9.509 9.509 0 000-19.018zM68.96 106.05a5.244 5.244 0 01-5.244 5.244 5.139 5.139 0 01-2.133-.472l4.318-9.439a4.58 4.58 0 01.891.524 8.914 8.914 0 001.5 1.748 5.087 5.087 0 01.668 2.395zm5.786-2.657a6.835 6.835 0 01-6.835-6.328l2.762-6.047a6.747 6.747 0 014.073-1.346 6.87 6.87 0 110 13.722z"/><path data-name="Tracé 908" d="M63.769 62.893h2.447c2.692 0 4.09 4.02 4.09 4.02h2.465a3.671 3.671 0 002.762-3.758 4.789 4.789 0 00-2.639-4.3h-9.095z"/><path data-name="Tracé 909" d="M81.423 70.04a2.552 2.552 0 10-2.554 2.554 2.552 2.552 0 002.554-2.554z"/><circle data-name="Ellipse 307" cx="5.209" cy="5.209" r="5.209" transform="translate(83.101 70.182)"/><path data-name="Tracé 910" d="M92.156 83.711a3.671 3.671 0 103.671 3.67 3.671 3.671 0 00-3.671-3.671z"/></g></svg>