<svg xmlns="http://www.w3.org/2000/svg" width="110.327" height="104.827"><g data-name="Groupe 103"><g data-name="Groupe 93"><path data-name="Tracé 443" d="M8.719 74.327a.82.82 0 01-.24-1.605l16.513-5.036a.82.82 0 01.481 1.569L8.958 74.29a.786.786 0 01-.239.037z" fill="#1078ad"/></g><g data-name="Groupe 94"><path data-name="Tracé 444" d="M24.328 64.684h-.065l-15.9-1.239a.821.821 0 11.128-1.636l15.9 1.239a.821.821 0 01-.063 1.639z" fill="#1078ad"/></g><g data-name="Groupe 95"><path data-name="Tracé 445" d="M13.629 84.622a.821.821 0 01-.51-1.464l12.507-9.9a.821.821 0 011.019 1.287l-12.507 9.9a.814.814 0 01-.509.177z" fill="#1078ad"/></g><g data-name="Groupe 96"><circle data-name="Ellipse 276" cx=".822" cy=".822" r=".822" fill="#1078ad" transform="translate(6.262 65.84)"/></g><g data-name="Groupe 97"><circle data-name="Ellipse 277" cx=".822" cy=".822" r=".822" fill="#1078ad" transform="translate(18.238 71.86)"/></g><g data-name="Groupe 98"><circle data-name="Ellipse 278" cx=".822" cy=".822" r=".822" fill="#1078ad" transform="translate(0 84.498)"/></g><g data-name="Groupe 99"><circle data-name="Ellipse 279" cx=".822" cy=".822" r=".822" fill="#1078ad" transform="translate(19.882 87.407)"/></g><g data-name="Groupe 100"><circle data-name="Ellipse 280" cx=".822" cy=".822" r=".822" fill="#1078ad" transform="translate(27.575 75.769)"/></g><g data-name="Groupe 101"><circle data-name="Ellipse 281" cx=".822" cy=".822" r=".822" fill="#1078ad" transform="translate(20.704 65.84)"/></g><g data-name="Groupe 102"><circle data-name="Ellipse 282" cx=".822" cy=".822" r=".822" fill="#1078ad" transform="translate(19.06 60.224)"/></g></g><g data-name="Groupe 104"><path data-name="Tracé 446" d="M97.84 73.557c1.678-5.645 13.881-21.661 12.355-39.966S98.449.795 75.112.033s-36 12.051-38.746 22.729-3.2 9-1.678 14.186-7.989 13.274-8.542 18.915c-.284 2.9 5.465 3.514 5.465 3.514a26.084 26.084 0 01-.7 4.979 9.182 9.182 0 013.1-.315c3.631.183 4.709.851 4.927 2.256.224 1.446-1.095 2.355-2.52 3.094a45.66 45.66 0 01-4.662 1.6s1.549 11.542 4.2 12.541a15.232 15.232 0 008.8.752 11.333 11.333 0 014.028-.071c1.845.412 4.612 3.011 4.612 3.011-.079-.081-.583-.722 0 0 2.154 2.667 1.333 4.41 2.641 17.606h43.168S96.16 79.202 97.84 73.557z" fill="#1078ad"/></g></svg>