<svg data-name="Fichier 7" xmlns="http://www.w3.org/2000/svg" width="98.053" height="99.354"><defs><clipPath id="a"><circle data-name="Ellipse 305" cx="49.027" cy="49.027" r="49.027" fill="none"/></clipPath></defs><g data-name="Calque 2"><g data-name="Layer 1"><g data-name="Groupe 145" clip-path="url(#a)"><path data-name="Tracé 887" d="M79.955 67.82v-.874a4.267 4.267 0 000 .874z" fill="#fbc7b2"/><path data-name="Tracé 889" d="M79.846 65.605v-.767a5.455 5.455 0 000 .767z" fill="#fbc7b2"/><path data-name="Tracé 890" d="M80.026 69.15c-.12-1.94-.2-3.893-.252-5.833v-.359C69.006 73.067 56.837 80.349 49.422 80.349s-19.584-7.306-30.341-17.416a119.924 119.924 0 01-2.527 22.926 49 49 0 0065.56-.718A103.884 103.884 0 0180.03 69.15z" fill="#1078ad"/><path data-name="Tracé 891" d="M80.074 69.88v-.731l-.072-1.33v-4.862c-11 10.11-23.166 17.392-30.58 17.392s-19.584-7.306-30.341-17.416a119.924 119.924 0 01-2.527 22.926 49.11 49.11 0 0016.578 9.583c8.289-.755 16.913-2.575 22.435-4.791C67.174 86.003 71.39 78.996 80.074 69.88z" fill="#00395a"/><path data-name="Tracé 892" d="M19.081 62.958C29.837 73.067 42.016 80.35 49.421 80.35s19.585-7.307 30.341-17.416a89.1 89.1 0 0017.476-22.112A49.039 49.039 0 00.826 39.289c4.061 8.265 10.79 16.637 18.255 23.669z" fill="#1078ad"/><path data-name="Tracé 893" d="M57.842 17.871a4.791 4.791 0 01-1.893 3.785c-1.964 1.33-6.384.838-6.384.838s-4.42.491-6.384-.838a4.791 4.791 0 01-1.893-3.785c-2.4.2-3.593 3.222-1.749 6.313 1.2 1.976 4.971 2.144 7.546 2a48.676 48.676 0 014.947 0c2.575.144 6.384 0 7.558-2 1.822-3.091.636-6.121-1.748-6.313z" fill="#fff"/><path data-name="Tracé 894" d="M66.934 43.588a26.892 26.892 0 01-3.09-2.623c-2.4-2.2-5.234-5.354-8.864-5.75a5.989 5.989 0 00-4.324.826c-.635.479-.874.815-1.09.946-.228-.132-.467-.467-1.1-.946a5.989 5.989 0 00-4.324-.826c-3.593.4-6.444 3.593-8.864 5.75a26.891 26.891 0 01-3.09 2.623c-1.342.886-3.8-.5-6.384-.419.467 1.114 6.324 2.252 9.439 7.055 4.348 6.732 12.529 6.432 14.374 6.324 1.785.108 9.966.407 14.374-6.324 3.1-4.791 8.972-5.989 9.427-7.055-2.651-.084-5.13 1.309-6.484.419zm-13.176 3.438a23.418 23.418 0 01-4.2.623 23.262 23.262 0 01-4.2-.623 45.409 45.409 0 01-5.067-1.653c3.306-.419 5.989-2.971 9.271-4.025 3.246 1.054 5.989 3.593 9.259 4.025a44.426 44.426 0 01-5.043 1.653z" fill="#fff"/><path data-name="Tracé 895" d="M66.994 42.606a25.718 25.718 0 01-3.09-2.324c-2.4-1.94-5.234-4.719-8.864-5.067a6.564 6.564 0 00-4.324.731c-.671.443-.9.743-1.138.85-.228-.108-.455-.407-1.2-.85a6.54 6.54 0 00-4.324-.731c-3.593.347-6.444 3.126-8.852 5.067a26.844 26.844 0 01-3.1 2.324c-1.342.791-3.8.335-6.384.407a1.2 1.2 0 00.874.731c.527.383.91.216 1.4.407 1.437.563 3.066.132 4.552.515a18.04 18.04 0 005.223-.187c1.809-.431 3.342-.359 5.151-.767a16.386 16.386 0 016.109-.24 3.725 3.725 0 00.515 0h.515a16.314 16.314 0 016.1.24c1.809.407 3.342.335 5.151.767a18.111 18.111 0 005.234.192c1.485-.383 3.114 0 4.552-.515.491-.192.779-.18 1.366-.347.467-.359.779-.539.9-.791-2.593-.077-4.989.379-6.366-.412z" fill="#fff"/><path data-name="Tracé 896" d="M71.162 43.037a8.564 8.564 0 01-4.168-.431 25.717 25.717 0 01-3.091-2.327c-2.4-1.94-5.234-4.719-8.864-5.067a6.564 6.564 0 00-4.324.731c-.671.443-.9.743-1.138.85-.228-.108-.455-.407-1.2-.85a6.54 6.54 0 00-4.324-.731c-3.593.347-6.444 3.126-8.852 5.067a26.844 26.844 0 01-3.1 2.324c-1.018.6-2.7.479-4.564.419-.5.168-.407.6.12 1.03a.47.47 0 01.335.1c1.437.563 3.066.132 4.552.515 1.761.12 3.438 1.593 5.079 1.2s3.342-.347 5.151-.755c2.084-.467 4.132-1.94 6.253-1.641a3.725 3.725 0 00.515 0h.515c2.12-.3 3.869 1.2 5.989 1.641 1.809.407 3.342.323 5.151.755s3.593-1.078 5.378-1.2c1.461-.371 3.066 0 4.492-.491.79-.588.606-1.055.095-1.139z" fill="#fff"/><path data-name="Tracé 897" d="M47.29 48.656c-2.312-.108-4.216.323-4.24.97s1.821 1.2 4.132 1.342 4.216-.335 4.24-.97-1.82-1.246-4.132-1.342z" fill="#f37e85" opacity=".75"/><path data-name="Tracé 898" d="M43.96 36.33c-1.018 0-1.857.455-1.857 1.03s.838 1.018 1.857 1.018 1.857-.455 1.857-1.018-.839-1.03-1.857-1.03z" fill="#f37e85" opacity=".75"/><path data-name="Tracé 899" d="M53.362 36.33c-.8 0-1.449.371-1.449.815s.647.815 1.449.815 1.449-.359 1.449-.815-.646-.815-1.449-.815z" fill="#f37e85" opacity=".75"/><path data-name="Tracé 900" d="M56.166 35.923c-.4 0-.719.18-.719.407s.323.407.719.407.731-.18.731-.407-.324-.407-.731-.407z" fill="#f37e85" opacity=".75"/></g><path data-name="Tracé 901" d="M22.14 99.192h9.032c1.4 0 2.779 0 4.192.12a3.03 3.03 0 003.138-1.485 52.34 52.34 0 002.551-4.324 66.227 66.227 0 003.965-9.7 78.828 78.828 0 014.42-10.169c.563-1.066 1.4-3.1.12-3.977a3.593 3.593 0 00-4.12.551 18.984 18.984 0 00-3.15 3.486 13.607 13.607 0 00-1.581 3.965c-.3-4.288-.491-8.588-.695-12.889-.108-2.156-.216-4.3-.335-6.444a55.1 55.1 0 00-.419-6.289c-.24-1.318-.85-3.007-2.4-3.007-1.821 0-2.468 1.605-2.647 3.162-.467 4.12-.084 8.385-.192 12.565q0 2.839-.216 5.678c-.084 1.593-.431 1.342-.479-.084 0-1.737-.132-3.462-.2-5.2a13.044 13.044 0 00-.623-4.672 2.192 2.192 0 00-2.661-1.414c-1.09.383-1.533 1.689-1.761 2.719a24.209 24.209 0 00-.455 4.791c0 1.509.276 3.593-.252 5.043-1.126-2.4.91-11.894-3.593-11.343-2 .24-2.168 2.683-2.264 4.252-.156 2.24.252 4.791-.467 6.935-.731-2.144.455-7.63-2.4-8.564-3.845-1.2-3.1 6.887-3.066 8.684.108 4.791-.24 9.583.731 14.374a34.737 34.737 0 002.2 6.971c.467 1.1.994 2.18 1.557 3.234.359.671 1.282 3.09 2.156 3.09" fill="#fff"/></g></g></svg>